<mxfile host="Electron" agent="Mozilla/5.0 (Windows NT 10.0; Win64; x64) AppleWebKit/537.36 (KHTML, like Gecko) draw.io/26.0.16 Chrome/132.0.6834.196 Electron/34.2.0 Safari/537.36" version="26.0.16">
  <diagram id="C5RBs43oDa-KdzZeNtuy" name="Page-1">
    <mxGraphModel dx="1434" dy="844" grid="1" gridSize="10" guides="1" tooltips="1" connect="1" arrows="1" fold="1" page="1" pageScale="1" pageWidth="827" pageHeight="1169" math="0" shadow="0">
      <root>
        <mxCell id="WIyWlLk6GJQsqaUBKTNV-0" />
        <mxCell id="WIyWlLk6GJQsqaUBKTNV-1" parent="WIyWlLk6GJQsqaUBKTNV-0" />
        <mxCell id="7JraKB2bh5R20EL7v4pp-1" value="" style="edgeStyle=orthogonalEdgeStyle;rounded=0;orthogonalLoop=1;jettySize=auto;html=1;" edge="1" parent="WIyWlLk6GJQsqaUBKTNV-1" source="WIyWlLk6GJQsqaUBKTNV-3" target="7JraKB2bh5R20EL7v4pp-0">
          <mxGeometry relative="1" as="geometry" />
        </mxCell>
        <mxCell id="WIyWlLk6GJQsqaUBKTNV-3" value="Start Errand Player" style="rounded=1;whiteSpace=wrap;html=1;fontSize=12;glass=0;strokeWidth=1;shadow=0;" parent="WIyWlLk6GJQsqaUBKTNV-1" vertex="1">
          <mxGeometry x="160" y="80" width="120" height="40" as="geometry" />
        </mxCell>
        <mxCell id="7JraKB2bh5R20EL7v4pp-5" value="" style="edgeStyle=orthogonalEdgeStyle;rounded=0;orthogonalLoop=1;jettySize=auto;html=1;" edge="1" parent="WIyWlLk6GJQsqaUBKTNV-1" source="7JraKB2bh5R20EL7v4pp-0" target="7JraKB2bh5R20EL7v4pp-4">
          <mxGeometry relative="1" as="geometry" />
        </mxCell>
        <mxCell id="7JraKB2bh5R20EL7v4pp-0" value="From Home Page, enter Errand Page" style="whiteSpace=wrap;html=1;rounded=1;glass=0;strokeWidth=1;shadow=0;" vertex="1" parent="WIyWlLk6GJQsqaUBKTNV-1">
          <mxGeometry x="160" y="190" width="120" height="60" as="geometry" />
        </mxCell>
        <mxCell id="7JraKB2bh5R20EL7v4pp-26" value="" style="edgeStyle=orthogonalEdgeStyle;rounded=0;orthogonalLoop=1;jettySize=auto;html=1;" edge="1" parent="WIyWlLk6GJQsqaUBKTNV-1" source="7JraKB2bh5R20EL7v4pp-4" target="7JraKB2bh5R20EL7v4pp-25">
          <mxGeometry relative="1" as="geometry" />
        </mxCell>
        <mxCell id="7JraKB2bh5R20EL7v4pp-4" value="Gather Rewards if has finished errand" style="whiteSpace=wrap;html=1;rounded=1;glass=0;strokeWidth=1;shadow=0;" vertex="1" parent="WIyWlLk6GJQsqaUBKTNV-1">
          <mxGeometry x="360" y="190" width="120" height="60" as="geometry" />
        </mxCell>
        <mxCell id="7JraKB2bh5R20EL7v4pp-11" value="" style="edgeStyle=orthogonalEdgeStyle;rounded=0;orthogonalLoop=1;jettySize=auto;html=1;" edge="1" parent="WIyWlLk6GJQsqaUBKTNV-1" source="7JraKB2bh5R20EL7v4pp-8" target="7JraKB2bh5R20EL7v4pp-10">
          <mxGeometry relative="1" as="geometry" />
        </mxCell>
        <mxCell id="7JraKB2bh5R20EL7v4pp-8" value="Recognize Daily Errands" style="whiteSpace=wrap;html=1;rounded=1;glass=0;strokeWidth=1;shadow=0;" vertex="1" parent="WIyWlLk6GJQsqaUBKTNV-1">
          <mxGeometry x="360" y="414" width="120" height="60" as="geometry" />
        </mxCell>
        <mxCell id="7JraKB2bh5R20EL7v4pp-13" value="" style="edgeStyle=orthogonalEdgeStyle;rounded=0;orthogonalLoop=1;jettySize=auto;html=1;" edge="1" parent="WIyWlLk6GJQsqaUBKTNV-1" source="7JraKB2bh5R20EL7v4pp-10" target="7JraKB2bh5R20EL7v4pp-12">
          <mxGeometry relative="1" as="geometry" />
        </mxCell>
        <mxCell id="7JraKB2bh5R20EL7v4pp-10" value="Recognize Temp Errands" style="whiteSpace=wrap;html=1;rounded=1;glass=0;strokeWidth=1;shadow=0;" vertex="1" parent="WIyWlLk6GJQsqaUBKTNV-1">
          <mxGeometry x="360" y="526" width="120" height="60" as="geometry" />
        </mxCell>
        <mxCell id="7JraKB2bh5R20EL7v4pp-15" value="" style="edgeStyle=orthogonalEdgeStyle;rounded=0;orthogonalLoop=1;jettySize=auto;html=1;" edge="1" parent="WIyWlLk6GJQsqaUBKTNV-1" source="7JraKB2bh5R20EL7v4pp-12" target="7JraKB2bh5R20EL7v4pp-14">
          <mxGeometry relative="1" as="geometry" />
        </mxCell>
        <mxCell id="7JraKB2bh5R20EL7v4pp-12" value="Decide which errand to play based on all errands info" style="whiteSpace=wrap;html=1;rounded=1;glass=0;strokeWidth=1;shadow=0;" vertex="1" parent="WIyWlLk6GJQsqaUBKTNV-1">
          <mxGeometry x="360" y="638" width="120" height="60" as="geometry" />
        </mxCell>
        <mxCell id="7JraKB2bh5R20EL7v4pp-14" value="Do actions to play the errands" style="whiteSpace=wrap;html=1;rounded=1;glass=0;strokeWidth=1;shadow=0;" vertex="1" parent="WIyWlLk6GJQsqaUBKTNV-1">
          <mxGeometry x="360" y="750" width="120" height="60" as="geometry" />
        </mxCell>
        <mxCell id="7JraKB2bh5R20EL7v4pp-17" value="" style="endArrow=none;dashed=1;html=1;dashPattern=1 3;strokeWidth=2;rounded=0;" edge="1" parent="WIyWlLk6GJQsqaUBKTNV-1">
          <mxGeometry width="50" height="50" relative="1" as="geometry">
            <mxPoint x="40" y="160" as="sourcePoint" />
            <mxPoint x="800" y="160" as="targetPoint" />
          </mxGeometry>
        </mxCell>
        <mxCell id="7JraKB2bh5R20EL7v4pp-18" value="" style="endArrow=none;dashed=1;html=1;dashPattern=1 3;strokeWidth=2;rounded=0;" edge="1" parent="WIyWlLk6GJQsqaUBKTNV-1">
          <mxGeometry width="50" height="50" relative="1" as="geometry">
            <mxPoint x="160" y="280" as="sourcePoint" />
            <mxPoint x="800" y="280" as="targetPoint" />
          </mxGeometry>
        </mxCell>
        <mxCell id="7JraKB2bh5R20EL7v4pp-19" value="Scheduler" style="text;html=1;align=center;verticalAlign=middle;whiteSpace=wrap;rounded=0;strokeColor=default;" vertex="1" parent="WIyWlLk6GJQsqaUBKTNV-1">
          <mxGeometry x="30" y="85" width="60" height="30" as="geometry" />
        </mxCell>
        <mxCell id="7JraKB2bh5R20EL7v4pp-20" value="Errand Player" style="text;html=1;align=center;verticalAlign=middle;whiteSpace=wrap;rounded=0;strokeColor=default;glass=0;" vertex="1" parent="WIyWlLk6GJQsqaUBKTNV-1">
          <mxGeometry x="30" y="205" width="60" height="635" as="geometry" />
        </mxCell>
        <mxCell id="7JraKB2bh5R20EL7v4pp-21" value="pipeline&lt;div&gt;1. Enter Errand Page&lt;/div&gt;&lt;div&gt;2. Gather Rewards&lt;/div&gt;&lt;div&gt;3. Verify no finished errand&lt;/div&gt;" style="text;html=1;align=center;verticalAlign=middle;whiteSpace=wrap;rounded=0;" vertex="1" parent="WIyWlLk6GJQsqaUBKTNV-1">
          <mxGeometry x="600" y="182.5" width="180" height="75" as="geometry" />
        </mxCell>
        <mxCell id="7JraKB2bh5R20EL7v4pp-22" value="&lt;h1 style=&quot;margin-top: 0px;&quot;&gt;Dimensions&lt;/h1&gt;&lt;p&gt;1st Errand [230,60,980,189]&lt;/p&gt;&lt;p&gt;roi_offset [0,189]&lt;/p&gt;&lt;p&gt;4th Errand [230,627,980,93]&lt;/p&gt;&lt;p&gt;from 3rd to -1st Errand offset [0,85]&lt;/p&gt;" style="text;html=1;whiteSpace=wrap;overflow=hidden;rounded=0;" vertex="1" parent="WIyWlLk6GJQsqaUBKTNV-1">
          <mxGeometry x="580" y="330" width="230" height="290" as="geometry" />
        </mxCell>
        <mxCell id="7JraKB2bh5R20EL7v4pp-23" value="Recognize Daily Errands" style="whiteSpace=wrap;html=1;rounded=1;glass=0;strokeWidth=1;shadow=0;" vertex="1" parent="WIyWlLk6GJQsqaUBKTNV-1">
          <mxGeometry x="1121" y="80" width="120" height="60" as="geometry" />
        </mxCell>
        <mxCell id="7JraKB2bh5R20EL7v4pp-27" style="edgeStyle=orthogonalEdgeStyle;rounded=0;orthogonalLoop=1;jettySize=auto;html=1;exitX=0.5;exitY=1;exitDx=0;exitDy=0;entryX=0.5;entryY=0;entryDx=0;entryDy=0;" edge="1" parent="WIyWlLk6GJQsqaUBKTNV-1" source="7JraKB2bh5R20EL7v4pp-25" target="7JraKB2bh5R20EL7v4pp-8">
          <mxGeometry relative="1" as="geometry" />
        </mxCell>
        <mxCell id="7JraKB2bh5R20EL7v4pp-41" style="edgeStyle=orthogonalEdgeStyle;rounded=0;orthogonalLoop=1;jettySize=auto;html=1;exitX=1;exitY=0;exitDx=0;exitDy=0;entryX=0;entryY=1;entryDx=0;entryDy=0;strokeColor=default;elbow=vertical;curved=1;shadow=0;flowAnimation=1;endArrow=oval;endFill=0;startArrow=oval;startFill=0;dashed=1;dashPattern=12 12;" edge="1" parent="WIyWlLk6GJQsqaUBKTNV-1" source="7JraKB2bh5R20EL7v4pp-25" target="7JraKB2bh5R20EL7v4pp-28">
          <mxGeometry relative="1" as="geometry">
            <Array as="points">
              <mxPoint x="480" y="280" />
              <mxPoint x="850" y="280" />
            </Array>
          </mxGeometry>
        </mxCell>
        <mxCell id="7JraKB2bh5R20EL7v4pp-25" value="Get Screenshots" style="whiteSpace=wrap;html=1;rounded=1;glass=0;strokeWidth=1;shadow=0;" vertex="1" parent="WIyWlLk6GJQsqaUBKTNV-1">
          <mxGeometry x="360" y="302" width="120" height="60" as="geometry" />
        </mxCell>
        <mxCell id="7JraKB2bh5R20EL7v4pp-30" value="" style="edgeStyle=orthogonalEdgeStyle;rounded=0;orthogonalLoop=1;jettySize=auto;html=1;" edge="1" parent="WIyWlLk6GJQsqaUBKTNV-1" source="7JraKB2bh5R20EL7v4pp-28" target="7JraKB2bh5R20EL7v4pp-29">
          <mxGeometry relative="1" as="geometry" />
        </mxCell>
        <mxCell id="7JraKB2bh5R20EL7v4pp-28" value="Get Screenshots" style="whiteSpace=wrap;html=1;rounded=1;glass=0;strokeWidth=1;shadow=0;" vertex="1" parent="WIyWlLk6GJQsqaUBKTNV-1">
          <mxGeometry x="850" y="80" width="120" height="60" as="geometry" />
        </mxCell>
        <mxCell id="7JraKB2bh5R20EL7v4pp-34" value="" style="edgeStyle=orthogonalEdgeStyle;rounded=0;orthogonalLoop=1;jettySize=auto;html=1;" edge="1" parent="WIyWlLk6GJQsqaUBKTNV-1" source="7JraKB2bh5R20EL7v4pp-29" target="7JraKB2bh5R20EL7v4pp-33">
          <mxGeometry relative="1" as="geometry" />
        </mxCell>
        <mxCell id="7JraKB2bh5R20EL7v4pp-29" value="Verify at Daily Page" style="whiteSpace=wrap;html=1;rounded=1;glass=0;strokeWidth=1;shadow=0;" vertex="1" parent="WIyWlLk6GJQsqaUBKTNV-1">
          <mxGeometry x="845" y="200" width="130" height="30" as="geometry" />
        </mxCell>
        <mxCell id="7JraKB2bh5R20EL7v4pp-43" value="" style="edgeStyle=orthogonalEdgeStyle;rounded=0;orthogonalLoop=1;jettySize=auto;html=1;" edge="1" parent="WIyWlLk6GJQsqaUBKTNV-1" source="7JraKB2bh5R20EL7v4pp-33" target="7JraKB2bh5R20EL7v4pp-42">
          <mxGeometry relative="1" as="geometry" />
        </mxCell>
        <mxCell id="7JraKB2bh5R20EL7v4pp-33" value="Get 1st image" style="whiteSpace=wrap;html=1;rounded=1;glass=0;strokeWidth=1;shadow=0;" vertex="1" parent="WIyWlLk6GJQsqaUBKTNV-1">
          <mxGeometry x="860" y="245" width="100" height="30" as="geometry" />
        </mxCell>
        <mxCell id="7JraKB2bh5R20EL7v4pp-45" value="" style="edgeStyle=orthogonalEdgeStyle;rounded=0;orthogonalLoop=1;jettySize=auto;html=1;" edge="1" parent="WIyWlLk6GJQsqaUBKTNV-1" source="7JraKB2bh5R20EL7v4pp-42" target="7JraKB2bh5R20EL7v4pp-44">
          <mxGeometry relative="1" as="geometry" />
        </mxCell>
        <mxCell id="7JraKB2bh5R20EL7v4pp-42" value="Scroll Down to bottom" style="whiteSpace=wrap;html=1;rounded=1;glass=0;strokeWidth=1;shadow=0;" vertex="1" parent="WIyWlLk6GJQsqaUBKTNV-1">
          <mxGeometry x="840" y="290" width="140" height="30" as="geometry" />
        </mxCell>
        <mxCell id="7JraKB2bh5R20EL7v4pp-49" value="" style="edgeStyle=orthogonalEdgeStyle;rounded=0;orthogonalLoop=1;jettySize=auto;html=1;" edge="1" parent="WIyWlLk6GJQsqaUBKTNV-1" source="7JraKB2bh5R20EL7v4pp-44" target="7JraKB2bh5R20EL7v4pp-48">
          <mxGeometry relative="1" as="geometry" />
        </mxCell>
        <mxCell id="7JraKB2bh5R20EL7v4pp-44" value="Get 2nd image" style="whiteSpace=wrap;html=1;rounded=1;glass=0;strokeWidth=1;shadow=0;" vertex="1" parent="WIyWlLk6GJQsqaUBKTNV-1">
          <mxGeometry x="860" y="335" width="100" height="30" as="geometry" />
        </mxCell>
        <mxCell id="7JraKB2bh5R20EL7v4pp-51" value="" style="edgeStyle=orthogonalEdgeStyle;rounded=0;orthogonalLoop=1;jettySize=auto;html=1;" edge="1" parent="WIyWlLk6GJQsqaUBKTNV-1" source="7JraKB2bh5R20EL7v4pp-48" target="7JraKB2bh5R20EL7v4pp-50">
          <mxGeometry relative="1" as="geometry" />
        </mxCell>
        <mxCell id="7JraKB2bh5R20EL7v4pp-48" value="Verify at Temp Page" style="whiteSpace=wrap;html=1;rounded=1;glass=0;strokeWidth=1;shadow=0;" vertex="1" parent="WIyWlLk6GJQsqaUBKTNV-1">
          <mxGeometry x="845" y="381" width="130" height="30" as="geometry" />
        </mxCell>
        <mxCell id="7JraKB2bh5R20EL7v4pp-53" value="" style="edgeStyle=orthogonalEdgeStyle;rounded=0;orthogonalLoop=1;jettySize=auto;html=1;" edge="1" parent="WIyWlLk6GJQsqaUBKTNV-1" source="7JraKB2bh5R20EL7v4pp-50" target="7JraKB2bh5R20EL7v4pp-52">
          <mxGeometry relative="1" as="geometry" />
        </mxCell>
        <mxCell id="7JraKB2bh5R20EL7v4pp-50" value="Get 3rd image" style="whiteSpace=wrap;html=1;rounded=1;glass=0;strokeWidth=1;shadow=0;" vertex="1" parent="WIyWlLk6GJQsqaUBKTNV-1">
          <mxGeometry x="860" y="426" width="100" height="30" as="geometry" />
        </mxCell>
        <mxCell id="7JraKB2bh5R20EL7v4pp-55" value="" style="edgeStyle=orthogonalEdgeStyle;rounded=0;orthogonalLoop=1;jettySize=auto;html=1;" edge="1" parent="WIyWlLk6GJQsqaUBKTNV-1" source="7JraKB2bh5R20EL7v4pp-52" target="7JraKB2bh5R20EL7v4pp-54">
          <mxGeometry relative="1" as="geometry" />
        </mxCell>
        <mxCell id="7JraKB2bh5R20EL7v4pp-52" value="Scroll Down to bottom" style="whiteSpace=wrap;html=1;rounded=1;glass=0;strokeWidth=1;shadow=0;" vertex="1" parent="WIyWlLk6GJQsqaUBKTNV-1">
          <mxGeometry x="840" y="471" width="140" height="30" as="geometry" />
        </mxCell>
        <mxCell id="7JraKB2bh5R20EL7v4pp-54" value="Get 4th image" style="whiteSpace=wrap;html=1;rounded=1;glass=0;strokeWidth=1;shadow=0;" vertex="1" parent="WIyWlLk6GJQsqaUBKTNV-1">
          <mxGeometry x="860" y="516" width="100" height="30" as="geometry" />
        </mxCell>
        <mxCell id="7JraKB2bh5R20EL7v4pp-56" value="" style="endArrow=none;dashed=1;html=1;dashPattern=1 3;strokeWidth=2;rounded=0;" edge="1" parent="WIyWlLk6GJQsqaUBKTNV-1">
          <mxGeometry width="50" height="50" relative="1" as="geometry">
            <mxPoint x="160" y="610" as="sourcePoint" />
            <mxPoint x="800" y="610" as="targetPoint" />
          </mxGeometry>
        </mxCell>
        <mxCell id="7JraKB2bh5R20EL7v4pp-57" value="Custom Recognition" style="text;html=1;align=center;verticalAlign=middle;whiteSpace=wrap;rounded=0;strokeColor=default;" vertex="1" parent="WIyWlLk6GJQsqaUBKTNV-1">
          <mxGeometry x="190" y="320" width="80" height="225" as="geometry" />
        </mxCell>
      </root>
    </mxGraphModel>
  </diagram>
</mxfile>
